<?xml version="1.0" standalone="no"?>
<!DOCTYPE svg PUBLIC "-//W3C//DTD SVG 20010904//EN"
 "http://www.w3.org/TR/2001/REC-SVG-20010904/DTD/svg10.dtd">
<svg version="1.0" xmlns="http://www.w3.org/2000/svg"
 width="421.000000pt" height="421.000000pt" viewBox="0 0 421.000000 421.000000"
 preserveAspectRatio="xMidYMid meet">
<metadata>
Created by potrace 1.11, written by Peter Selinger 2001-2013
</metadata>
<g transform="translate(0.000000,421.000000) scale(0.100000,-0.100000)"
fill="#000000" stroke="none">
<path d="M0 3366 c0 -824 0 -844 20 -867 10 -13 19 -20 20 -15 0 5 7 3 15 -4
10 -9 15 -9 15 -1 0 19 28 12 44 -10 9 -13 29 -23 53 -25 21 -3 46 -6 56 -9
10 -2 21 3 24 11 7 18 37 18 53 -1 17 -21 29 -19 27 5 -1 11 -7 20 -14 20 -22
0 -26 22 -6 41 34 34 73 -2 51 -47 -5 -10 4 -4 20 14 32 36 44 39 63 16 11
-14 13 -14 21 0 13 24 22 20 36 -16 12 -31 13 -32 24 -13 6 11 21 30 34 43 47
45 25 82 -46 78 -47 -3 -55 -18 -23 -43 15 -12 15 -13 -1 -13 -21 0 -49 26
-42 39 3 5 -28 26 -70 47 -41 20 -77 41 -80 46 -4 5 3 20 15 32 12 12 21 32
21 43 0 25 36 73 55 73 19 0 18 97 -2 127 -8 13 -11 23 -7 23 5 0 -11 12 -36
26 -75 43 -76 58 -8 84 33 12 48 14 51 6 3 -8 8 -8 18 1 8 7 34 15 57 19 23 4
42 12 42 19 0 18 37 48 49 40 7 -3 11 2 11 14 0 26 -41 29 -64 6 -16 -16 -76
-21 -76 -6 0 5 -9 13 -20 16 -15 5 -20 15 -20 39 0 26 10 43 48 80 90 90 107
103 134 110 19 4 28 14 33 37 7 29 9 30 39 24 17 -3 56 -9 86 -13 53 -7 55 -8
52 -34 -1 -16 2 -28 8 -28 5 0 10 -9 10 -20 0 -11 -4 -20 -10 -20 -5 0 -10 5
-10 10 0 18 -39 11 -50 -9 -15 -29 -12 -41 9 -41 11 0 27 -7 35 -16 23 -23 4
-52 -37 -56 -25 -2 -33 -8 -35 -27 -4 -22 -1 -23 30 -18 18 3 41 8 51 12 14 6
17 2 17 -23 0 -40 9 -62 25 -62 30 0 38 -28 21 -77 -9 -25 -16 -61 -16 -78 0
-18 -8 -37 -20 -48 -20 -16 -21 -16 -27 0 -31 90 -51 104 -89 62 -13 -15 -26
-19 -46 -15 -27 5 -28 4 -26 -37 1 -23 -2 -49 -6 -58 -6 -13 2 -20 40 -33 75
-25 94 -21 134 29 31 40 40 45 75 45 48 0 60 7 68 40 4 17 20 32 49 45 41 19
76 63 77 96 1 16 29 34 39 25 2 -3 6 -38 7 -78 2 -40 4 -77 4 -82 1 -5 12 1
25 14 40 36 74 30 119 -24 37 -43 67 -59 67 -36 0 6 11 3 25 -7 17 -12 24 -25
22 -40 -2 -12 1 -24 8 -27 16 -6 49 -76 66 -141 13 -48 16 -140 9 -270 -1 -33
1 -87 5 -121 6 -48 4 -66 -8 -85 -26 -40 -28 -80 -7 -117 20 -34 18 -57 -4
-49 -16 6 -5 -75 13 -97 9 -10 9 -20 3 -32 -12 -22 -4 -52 17 -59 17 -5 71
-87 71 -108 0 -7 4 -6 10 3 8 13 11 11 16 -7 4 -13 13 -23 20 -23 17 0 18 -16
2 -24 -7 -4 -3 -4 9 -2 18 3 23 -4 36 -48 9 -31 19 -50 27 -48 9 2 11 -6 7
-27 -4 -20 -1 -33 10 -43 15 -11 16 -11 10 5 -3 9 -2 17 3 17 6 0 10 -7 10
-15 0 -18 -53 -47 -73 -40 -7 3 -26 -1 -42 -9 l-28 -15 26 -12 c22 -10 36 -8
84 9 63 23 133 25 133 4 0 -20 31 -63 41 -56 5 3 6 -3 2 -12 -4 -11 -2 -15 4
-11 6 4 14 0 17 -9 3 -9 12 -14 18 -12 15 5 38 -15 38 -34 1 -7 7 -2 16 12 8
14 14 18 13 10 -3 -23 11 -50 26 -50 7 0 15 -5 17 -11 3 -9 10 -9 26 0 18 9
22 9 20 -1 -2 -8 5 -12 19 -10 16 2 20 -1 17 -15 -8 -35 9 -46 55 -33 22 6 41
15 41 19 0 5 7 11 15 15 13 5 14 2 4 -17 -7 -12 -21 -34 -31 -49 -12 -17 -15
-28 -8 -28 7 0 25 -11 41 -25 17 -13 36 -22 45 -18 9 3 14 0 12 -8 -2 -11 13
-14 63 -15 52 0 72 -5 94 -22 19 -15 42 -22 70 -22 26 0 48 -6 55 -15 7 -8 20
-15 30 -15 10 0 20 -6 23 -14 4 -10 25 -14 73 -14 56 0 71 3 82 19 7 10 24 19
37 19 13 0 27 5 30 10 4 6 19 9 33 8 23 -3 27 0 24 20 -3 17 2 22 18 22 11 0
23 7 26 15 4 8 10 12 15 9 5 -3 9 4 9 15 0 17 6 21 34 21 18 0 48 3 65 6 28 6
31 4 24 -12 -6 -17 -5 -18 13 -4 10 8 22 18 25 22 3 5 17 9 32 10 15 1 27 6
27 11 0 12 27 37 33 30 3 -3 -3 -28 -14 -55 -11 -28 -18 -52 -16 -54 1 -2 25
38 52 89 73 138 122 198 186 226 30 13 64 28 77 34 42 20 240 -81 335 -170 29
-27 68 -55 87 -63 19 -7 43 -20 52 -28 16 -13 19 -12 29 12 17 36 59 35 91 -2
18 -22 29 -27 44 -21 12 4 27 3 35 -2 19 -12 79 -11 79 1 0 17 -66 105 -287
379 -48 60 -78 89 -83 81 -4 -6 -20 -10 -36 -8 -34 4 -43 31 -19 58 16 17 15
22 -23 77 -22 32 -78 124 -126 204 -57 97 -93 149 -107 152 -12 3 -20 13 -19
24 4 30 1 37 -30 87 -30 47 -32 48 -50 31 -24 -21 -41 -11 -61 36 -10 25 -10
35 0 51 10 16 10 23 -3 37 -9 10 -16 27 -16 39 0 11 -16 48 -35 80 -34 58 -55
72 -110 72 -14 0 -49 -85 -41 -98 3 -5 19 -7 35 -4 33 5 50 -15 35 -40 -5 -7
-7 -23 -5 -35 1 -13 -2 -23 -8 -23 -6 0 -8 -6 -5 -14 3 -7 -3 -21 -12 -31 -15
-14 -15 -18 -3 -26 8 -5 10 -9 4 -9 -5 0 -3 -5 5 -10 12 -8 11 -10 -6 -10 -12
0 -24 7 -28 15 -3 8 -12 15 -21 15 -17 0 -22 -65 -5 -75 13 -8 13 -82 0 -90
-13 -8 -40 18 -40 38 0 8 -7 18 -16 21 -23 9 -24 8 -17 -10 4 -10 -1 -20 -11
-26 -13 -7 -14 -13 -6 -29 6 -11 15 -17 20 -14 18 11 51 -34 44 -60 -3 -14
-10 -25 -15 -25 -17 0 -9 -29 11 -40 27 -14 26 -32 -2 -28 -15 2 -22 -3 -23
-17 -1 -11 -6 -29 -12 -39 -8 -14 -8 -25 1 -38 9 -15 8 -22 -4 -31 -8 -7 -22
-25 -30 -40 -16 -33 -3 -49 33 -39 17 4 19 2 14 -20 -6 -22 -2 -28 23 -38 17
-7 30 -16 30 -21 0 -5 -17 -2 -37 7 -21 9 -51 20 -67 25 -17 5 -81 34 -143 65
-108 54 -163 100 -149 123 3 5 -1 12 -10 15 -11 4 -14 17 -12 51 3 24 7 48 11
51 11 11 8 36 -3 29 -5 -3 -10 -1 -10 4 0 6 5 11 12 11 9 0 9 3 -1 13 -10 10
-15 8 -26 -7 -8 -10 -18 -15 -23 -12 -10 6 -15 172 -6 187 10 17 45 -11 43
-34 -6 -71 8 -104 39 -88 24 13 35 52 23 84 -5 14 -12 55 -15 93 -3 38 -10 82
-14 98 l-8 30 -13 -32 c-7 -18 -15 -46 -16 -64 -4 -47 -4 -48 -14 -48 -9 0 -6
83 5 165 4 28 9 44 11 38 9 -25 23 -13 23 18 0 26 -2 29 -14 20 -16 -14 -21
-8 -31 37 -5 25 -3 38 11 53 16 18 16 20 -6 39 -12 11 -27 17 -31 14 -17 -10
-9 83 12 142 22 65 22 95 -6 238 -14 73 -14 90 -3 97 10 6 8 9 -7 9 -18 0 -18
1 -2 18 14 14 33 17 99 14 l81 -2 -6 34 c-3 18 -49 127 -102 242 -54 115 -109
234 -122 264 -14 30 -68 142 -119 248 l-93 192 -87 0 -88 0 36 -37 c59 -60 71
-121 20 -94 -25 13 -80 77 -94 107 -12 27 -58 34 -58 10 0 -17 -116 -76 -149
-76 -12 0 -40 9 -62 20 -34 18 -38 24 -33 46 6 24 5 26 -17 18 -31 -11 -88
-11 -113 1 -16 7 -18 5 -13 -8 3 -9 2 -17 -3 -17 -6 0 -10 7 -10 15 0 13 -103
15 -870 15 l-870 0 0 -844z m2138 757 c-3 -47 -2 -48 26 -51 16 -2 48 -19 71
-37 37 -31 41 -38 37 -72 -5 -46 -50 -112 -75 -113 -10 0 -31 7 -47 15 -28 14
-30 14 -30 -3 0 -10 24 -44 53 -75 55 -59 79 -114 70 -159 -4 -22 -11 -28 -32
-28 -29 1 -77 24 -74 37 2 4 -3 8 -11 8 -16 0 -56 47 -56 65 0 6 -5 8 -10 5
-6 -4 -8 -16 -5 -27 4 -12 0 -27 -11 -39 -20 -22 -12 -38 11 -19 12 10 15 10
15 -4 0 -8 11 -23 24 -32 22 -14 24 -20 19 -65 -4 -33 -2 -49 6 -49 6 0 11 -7
11 -16 0 -10 -6 -14 -15 -11 -8 4 -17 2 -20 -3 -4 -6 -17 -10 -30 -10 -18 0
-26 7 -30 25 -3 14 -7 36 -10 49 -3 17 2 29 20 42 33 25 32 34 -5 34 -16 0
-30 5 -30 11 0 5 -4 7 -10 4 -13 -8 -13 -7 6 89 20 107 25 118 34 86 8 -24 8
-23 9 7 1 17 6 35 11 38 6 4 8 11 4 16 -3 6 3 13 14 16 52 13 25 150 -32 161
-12 3 -16 -4 -16 -32 0 -20 -5 -36 -11 -36 -5 0 -8 -4 -5 -9 4 -5 0 -12 -6
-14 -8 -4 -7 -6 4 -6 18 -1 27 -25 20 -55 -4 -13 -12 -3 -28 35 -30 70 -30
104 -1 133 17 17 21 29 15 39 -12 22 26 32 64 16 36 -15 48 -3 48 49 0 17 3
32 6 32 3 0 4 -21 2 -47z m-370 12 c0 -14 -5 -25 -10 -25 -5 0 -7 4 -3 9 3 5
1 12 -5 16 -6 4 -8 11 -5 16 11 17 23 9 23 -16z m206 -589 c-3 -7 2 -16 11
-20 13 -5 15 -14 11 -44 -5 -30 -1 -42 19 -65 14 -16 29 -26 34 -23 5 3 8 -2
7 -12 0 -9 -10 -20 -21 -23 -19 -6 -19 -7 -1 -14 13 -6 23 -3 32 9 14 19 39
12 31 -8 -3 -7 3 -18 13 -24 22 -13 30 1 23 40 -3 18 0 27 13 32 9 3 17 5 18
4 1 -2 11 -17 24 -35 12 -18 22 -39 22 -47 0 -8 10 -22 22 -30 17 -12 20 -18
10 -28 -15 -15 -16 -45 -1 -50 5 -2 13 -23 16 -47 5 -39 8 -42 30 -38 17 3 23
1 19 -9 -3 -7 -1 -16 4 -19 6 -4 10 -1 10 4 0 19 28 12 35 -8 7 -24 31 -34 55
-21 28 15 79 -6 78 -33 -1 -49 -19 -85 -47 -95 -24 -8 -29 -17 -34 -57 -5 -32
-2 -55 8 -75 8 -16 16 -41 17 -54 1 -14 8 -28 15 -30 6 -3 17 -24 23 -48 6
-24 15 -52 20 -63 5 -11 12 -31 16 -45 4 -14 17 -41 30 -60 13 -19 24 -40 24
-47 0 -14 -91 -55 -158 -70 -25 -6 -62 21 -62 44 0 8 -13 13 -38 13 -50 0 -82
29 -82 73 0 18 5 38 12 45 7 7 9 12 5 12 -22 0 -157 -162 -157 -189 0 -4 -22
-25 -48 -47 -27 -21 -48 -41 -48 -44 1 -10 -31 -50 -36 -44 -4 3 -9 -4 -13
-16 -6 -18 -34 -37 -70 -46 -5 -1 -18 -5 -27 -9 -11 -4 -18 -3 -18 4 0 14 -41
10 -58 -7 -8 -7 -17 -10 -22 -7 -5 3 -11 1 -15 -5 -9 -14 -26 -12 -24 3 4 32
-2 46 -16 41 -9 -4 -15 0 -15 10 0 9 -4 16 -10 16 -5 0 -10 -7 -10 -16 0 -8
-5 -12 -10 -9 -6 4 -9 14 -8 23 2 9 -2 16 -8 15 -6 -1 -9 10 -6 29 3 21 1 29
-7 24 -6 -4 -11 -2 -11 4 0 6 -5 8 -11 4 -8 -4 -8 -1 -1 12 16 31 24 92 12 99
-5 3 -10 21 -10 39 0 17 -5 37 -12 44 -6 6 -13 38 -15 69 -2 32 -8 62 -13 67
-6 6 -10 20 -10 33 0 12 -10 31 -21 42 -18 16 -21 28 -16 61 3 22 1 42 -3 45
-5 3 -6 21 -3 41 5 29 2 38 -17 51 -20 14 -21 17 -6 25 9 5 16 16 16 24 0 8
12 19 26 24 17 7 24 15 20 25 -3 10 1 15 13 15 11 0 21 3 23 8 2 4 24 18 50
32 26 13 44 27 40 30 -14 10 -12 31 3 36 8 3 13 10 10 14 -3 5 -1 11 5 15 12
8 13 45 1 45 -5 0 -7 9 -4 20 3 11 0 20 -6 20 -20 0 -3 149 27 228 16 41 19
43 50 38 17 -2 32 -1 32 3 0 4 15 8 33 9 17 1 40 2 49 2 9 1 22 8 29 16 15 19
90 19 83 0z m-1614 -32 c19 -3 43 -13 52 -22 26 -22 34 -79 16 -116 -8 -17
-21 -43 -28 -58 -14 -30 -38 -35 -70 -16 -16 10 -23 9 -43 -10 -21 -20 -25
-21 -45 -6 -31 21 -27 30 14 31 43 1 43 1 37 36 -3 16 -12 27 -22 27 -20 1
-91 39 -73 40 12 0 11 27 -3 63 -16 39 1 50 68 44 34 -4 78 -9 97 -13z m714
-90 c9 -3 16 -12 16 -20 0 -10 -14 -14 -50 -14 -36 0 -52 -5 -59 -17 -9 -16
-12 -16 -21 -3 -14 21 -12 47 3 53 18 8 93 8 111 1z m1239 -174 c-4 -16 -8
-18 -19 -9 -20 16 -17 29 5 29 14 0 18 -5 14 -20z m-1383 -5 c22 -12 27 -19
22 -37 -5 -19 -7 -20 -10 -5 -2 12 -12 18 -25 16 -39 -3 -47 1 -47 21 0 24 20
26 60 5z m1 -107 c-4 -12 -13 -24 -19 -26 -16 -5 -15 45 1 51 20 7 27 -2 18
-25z m1619 -98 c0 -5 -2 -10 -4 -10 -3 0 -8 5 -11 10 -3 6 -1 10 4 10 6 0 11
-4 11 -10z m70 -110 c0 -5 -9 -10 -20 -10 -11 0 -20 5 -20 10 0 6 9 10 20 10
11 0 20 -4 20 -10z m-30 -110 c0 -11 -4 -20 -9 -20 -11 0 -22 26 -14 34 12 12
23 5 23 -14z m73 -357 c19 -18 22 -58 7 -98 -10 -26 -10 -26 -38 -9 -20 11
-33 31 -42 63 -13 44 -23 109 -13 84 7 -18 23 -16 23 2 0 15 3 13 63 -42z
m627 7 c0 -5 -4 -10 -10 -10 -5 0 -10 5 -10 10 0 6 5 10 10 10 6 0 10 -4 10
-10z m-10 -41 c0 -5 5 -7 11 -3 6 3 15 0 20 -7 12 -19 11 -29 -2 -29 -16 0
-59 36 -52 44 10 10 23 7 23 -5z m2 -114 c6 -14 17 -25 25 -25 15 0 17 -18 4
-39 -5 -8 -14 -10 -22 -5 -7 4 -27 8 -44 8 -24 1 -31 6 -33 24 -4 26 23 62 45
62 7 0 19 -11 25 -25z m-892 -25 c0 -5 -3 -10 -7 -11 -5 0 -16 -2 -25 -4 -18
-3 -24 6 -11 18 10 11 43 8 43 -3z m-125 -52 l-7 -23 17 23 c17 23 49 30 60
12 4 -6 13 -5 26 3 16 10 21 9 28 -2 5 -7 14 -10 20 -7 6 4 15 -4 21 -20 9
-21 7 -29 -7 -40 -10 -7 -23 -12 -29 -10 -6 2 -17 0 -24 -4 -8 -5 -18 -6 -23
-3 -4 3 -34 6 -66 7 -62 3 -81 10 -81 29 0 23 31 57 51 57 16 0 19 -4 14 -22z
m-75 -16 c0 -24 -8 -32 -26 -25 -10 4 -11 10 -3 24 12 24 29 25 29 1z m1265
-24 c-4 -13 -6 -35 -6 -49 1 -15 -5 -29 -13 -32 -11 -4 -15 6 -18 45 -3 56 -2
58 25 58 15 0 18 -4 12 -22z m-1671 -33 c-4 -8 -8 -15 -10 -15 -2 0 -4 7 -4
15 0 8 4 15 10 15 5 0 7 -7 4 -15z m1432 1 c3 -8 1 -24 -6 -35 -9 -17 -15 -19
-30 -11 -20 10 -27 40 -13 53 12 12 43 7 49 -7z m92 -42 c29 -20 29 -60 0 -68
-54 -14 -68 -8 -68 29 0 22 6 38 18 44 23 14 24 14 50 -5z m-1053 -18 c59 -17
123 -29 158 -30 9 0 17 -6 17 -13 0 -10 -25 -12 -103 -10 -112 2 -141 -9 -130
-51 3 -13 -3 -28 -16 -41 l-21 -21 -19 21 c-29 31 -44 99 -26 120 8 8 15 24
15 33 0 21 27 19 125 -8z m1185 -30 c0 -13 7 -29 15 -36 19 -16 19 -35 -1 -54
-8 -9 -12 -21 -9 -26 4 -6 4 -22 1 -36 -5 -19 -13 -24 -39 -24 -39 0 -57 15
-57 47 0 16 -6 23 -20 23 -12 0 -20 7 -20 17 0 27 41 63 72 63 20 0 28 5 28
18 0 10 3 22 7 25 13 14 23 6 23 -17z m-146 -112 c9 -3 16 -12 16 -19 0 -8 8
-16 18 -19 18 -6 45 -82 36 -98 -3 -5 -18 -8 -33 -8 -43 0 -76 48 -71 105 3
45 7 49 34 39z m-1059 -22 c-3 -3 -11 0 -18 7 -9 10 -8 11 6 5 10 -3 15 -9 12
-12z m931 -148 c-6 -17 -8 -17 -24 0 -15 15 -15 18 -2 26 19 12 35 -3 26 -26z
m252 -61 c2 -14 -4 -26 -17 -32 -16 -9 -23 -7 -35 11 -12 16 -13 25 -4 35 17
21 52 12 56 -14z m32 -63 c0 -24 -34 -60 -56 -60 -34 0 4 79 39 80 10 0 17 -7
17 -20z m290 -136 c0 -8 -5 -12 -10 -9 -6 4 -8 11 -5 16 9 14 15 11 15 -7z"/>
<path d="M2188 3945 c5 -28 17 -33 26 -9 7 19 -1 34 -18 34 -9 0 -12 -9 -8
-25z"/>
<path d="M2086 3481 c-4 -7 -5 -15 -2 -18 9 -9 19 4 14 18 -4 11 -6 11 -12 0z"/>
<path d="M2056 3302 c-2 -4 -1 -14 3 -21 6 -9 10 -7 14 8 5 20 -7 29 -17 13z"/>
<path d="M2056 3047 c-13 -4 -27 -16 -30 -25 -3 -9 -8 -22 -11 -28 -9 -18 45
-33 78 -21 20 6 32 6 40 -2 6 -6 21 -11 34 -11 37 0 123 21 123 30 0 5 -10 20
-23 34 -20 21 -33 25 -105 28 -45 2 -93 -1 -106 -5z"/>
<path d="M2085 2944 c-5 -1 -31 -5 -57 -9 -44 -6 -176 -81 -163 -93 3 -3 13 2
22 10 30 26 81 48 112 48 24 0 28 -3 24 -20 -5 -17 -2 -18 28 -10 19 6 35 10
36 10 2 0 3 -11 3 -25 0 -17 -7 -26 -23 -30 -29 -8 -77 10 -77 29 0 12 -6 12
-47 0 -66 -20 -78 -36 -23 -29 52 6 75 -7 85 -48 6 -21 4 -27 -9 -27 -15 0
-20 -10 -13 -27 1 -4 10 -6 21 -5 12 2 16 0 11 -8 -4 -6 -10 -9 -13 -6 -3 4
-16 -1 -28 -9 -21 -14 -24 -13 -33 4 -12 21 -73 23 -94 2 -10 -10 -9 -11 5 -6
12 5 25 -2 41 -21 18 -20 37 -29 78 -35 30 -5 64 -10 77 -12 16 -3 22 1 22 15
0 15 6 18 36 16 42 -3 49 -10 34 -38 -12 -23 -8 -25 23 -8 38 20 49 36 38 56
-7 14 -3 23 20 42 72 61 72 60 66 101 -7 50 -41 98 -84 115 -32 14 -98 24
-118 18z"/>
<path d="M2038 2843 c6 -2 18 -2 25 0 6 3 1 5 -13 5 -14 0 -19 -2 -12 -5z"/>
<path d="M2700 4195 c7 -8 21 -15 31 -15 22 0 34 -38 25 -75 -5 -18 -2 -25 9
-25 9 0 15 9 16 23 1 21 1 21 8 -3 4 -14 4 -26 -1 -28 -15 -7 -8 -22 10 -22
20 0 52 -29 52 -48 0 -6 14 -19 30 -27 l31 -16 -16 37 c-8 21 -19 42 -24 48
-5 6 -23 38 -41 71 -54 98 -51 95 -99 95 -37 0 -42 -2 -31 -15z"/>
<path d="M3356 4185 c-3 -13 -21 -36 -40 -51 -29 -23 -32 -29 -22 -50 6 -13
18 -24 26 -24 13 0 13 -1 0 -10 -13 -8 -12 -12 7 -29 22 -21 62 -25 65 -6 1 5
2 28 4 50 3 53 14 98 28 107 8 5 7 8 -1 8 -7 0 -13 7 -13 15 0 9 -9 15 -24 15
-17 0 -26 -7 -30 -25z m22 -78 c15 6 15 5 3 -11 -11 -13 -16 -14 -22 -4 -5 7
-8 18 -8 23 0 6 3 5 5 -2 3 -7 13 -9 22 -6z"/>
<path d="M3470 4190 c0 -11 5 -20 10 -20 6 0 10 9 10 20 0 11 -4 20 -10 20 -5
0 -10 -9 -10 -20z"/>
<path d="M3515 4200 c3 -5 10 -10 16 -10 5 0 9 5 9 10 0 6 -7 10 -16 10 -8 0
-12 -4 -9 -10z"/>
<path d="M3714 4195 c-14 -36 40 -49 69 -17 25 27 21 32 -23 32 -26 0 -43 -5
-46 -15z"/>
<path d="M2676 4171 c-15 -6 -11 -9 21 -19 55 -16 62 -15 33 8 -28 22 -27 22
-54 11z"/>
<path d="M2712 4110 c0 -14 2 -19 5 -12 2 6 2 18 0 25 -3 6 -5 1 -5 -13z"/>
<path d="M3485 4098 c-10 -13 -19 -34 -19 -48 -1 -17 -7 -26 -21 -28 -42 -8
-60 -66 -30 -96 8 -8 15 -20 15 -26 0 -7 7 -9 16 -6 8 3 12 2 9 -4 -3 -6 -1
-10 4 -10 6 0 11 -6 11 -13 0 -8 14 -33 30 -55 17 -23 27 -42 23 -42 -4 0 2
-6 13 -14 17 -13 21 -12 39 4 11 10 37 25 58 34 42 17 43 20 22 68 -9 23 -25
40 -47 49 -35 14 -98 71 -98 89 0 5 7 10 16 10 11 0 14 5 10 16 -3 9 -6 26 -6
38 0 12 -6 30 -13 39 -11 16 -13 16 -32 -5z m115 -218 c0 -11 -4 -20 -9 -20
-5 0 -11 9 -14 20 -3 13 0 20 9 20 8 0 14 -9 14 -20z m-80 -40 c0 -5 -5 -10
-11 -10 -5 0 -7 5 -4 10 3 6 8 10 11 10 2 0 4 -4 4 -10z m60 -17 c0 -21 -3
-24 -9 -14 -5 8 -7 20 -4 28 8 21 13 15 13 -14z"/>
<path d="M3137 4074 c-4 -4 -7 -17 -7 -28 1 -19 1 -20 11 -3 11 19 8 43 -4 31z"/>
<path d="M3585 4069 c-4 -6 -3 -15 3 -21 6 -6 11 -4 15 6 7 18 -9 31 -18 15z"/>
<path d="M3555 4030 c-7 -12 2 -30 16 -30 5 0 9 9 9 20 0 21 -15 27 -25 10z"/>
<path d="M3827 4003 c-3 -5 -5 -26 -5 -49 -1 -31 6 -47 29 -72 16 -17 29 -35
29 -40 0 -6 -13 -24 -29 -41 -16 -17 -25 -31 -19 -31 5 0 8 -8 6 -18 -1 -9 7
-31 19 -47 31 -44 33 -69 5 -73 -28 -4 -101 29 -102 46 0 6 -6 12 -13 12 -7 0
-26 14 -42 30 -16 17 -34 30 -40 30 -14 0 -48 -36 -64 -67 -9 -18 -8 -20 9
-16 15 4 20 0 20 -16 0 -11 5 -21 10 -21 6 0 10 -7 10 -15 0 -8 5 -14 11 -13
7 2 12 -11 13 -32 1 -24 10 -43 30 -62 16 -16 33 -28 37 -28 14 0 29 -37 23
-54 -3 -9 -12 -16 -19 -16 -7 0 -24 -9 -38 -20 l-26 -21 -7 25 c-3 14 -4 32
-1 39 6 17 -4 34 -23 39 -11 2 -13 -6 -11 -36 3 -47 44 -88 79 -79 13 3 22 1
22 -7 0 -6 5 -8 11 -5 6 4 17 -2 25 -14 8 -12 22 -21 30 -21 16 0 18 12 4 26
-18 18 1 73 31 95 l29 20 0 -25 c0 -14 4 -26 8 -26 5 0 8 -17 7 -37 -2 -26 -8
-39 -19 -41 -9 -2 -16 3 -16 12 0 9 -4 16 -10 16 -5 0 -10 -7 -10 -15 0 -8 4
-15 9 -15 5 0 12 -15 15 -34 5 -25 13 -36 31 -40 27 -7 34 -26 10 -26 -8 0
-15 -4 -15 -10 0 -5 17 -10 37 -10 34 0 35 -1 18 -14 -18 -13 -18 -15 10 -49
17 -20 35 -36 42 -36 6 -1 14 -15 18 -31 4 -17 20 -40 37 -53 17 -12 34 -32
39 -45 5 -14 14 -20 21 -16 7 4 8 3 4 -4 -4 -7 0 -22 8 -34 9 -12 16 -19 16
-15 0 5 7 2 15 -7 8 -8 15 -26 15 -40 0 -17 5 -26 16 -26 10 0 14 -6 11 -14
-3 -8 1 -22 8 -33 12 -15 14 21 15 269 0 251 -2 289 -16 303 -9 9 -16 28 -16
42 0 18 -3 21 -9 12 -7 -11 -13 -9 -29 11 -21 27 -27 55 -8 44 7 -4 8 -3 4 4
-4 7 -16 12 -28 12 -15 0 -19 5 -15 20 3 13 -1 21 -14 25 -11 4 -16 12 -12 21
3 8 2 14 -3 13 -5 -1 -16 -1 -24 0 -13 1 -13 3 -1 10 12 8 11 13 -6 35 -11 14
-23 22 -27 19 -3 -3 -11 8 -17 25 -6 18 -14 32 -17 32 -4 0 -18 16 -31 35 -13
19 -31 37 -41 40 -12 4 -16 13 -12 30 7 37 20 40 51 11 35 -34 51 -33 45 2 -7
40 -55 105 -92 123 -18 10 -32 20 -31 23 1 4 -1 20 -5 36 -5 28 -19 39 -29 23z
m14 -386 c28 -10 34 -17 34 -42 0 -36 -10 -45 -50 -45 -25 0 -35 8 -58 47 -40
65 -23 74 74 40z m186 -569 c-3 -8 -6 -5 -6 6 -1 11 2 17 5 13 3 -3 4 -12 1
-19z"/>
<path d="M3637 3984 c-9 -9 16 -32 30 -27 7 3 13 -1 13 -8 0 -14 67 -79 82
-79 4 0 8 18 8 39 0 22 2 45 5 53 4 10 -7 13 -42 13 -27 0 -57 3 -69 8 -11 4
-23 4 -27 1z"/>
<path d="M3333 3963 c-7 -2 -13 -9 -13 -15 0 -12 41 -6 41 7 1 12 -11 15 -28
8z"/>
<path d="M3465 3671 c-11 -5 -23 -7 -27 -4 -14 8 -8 -14 6 -26 12 -10 86 -13
86 -3 0 2 -5 12 -10 23 -11 20 -23 22 -55 10z"/>
<path d="M2890 3464 c0 -8 5 -12 10 -9 6 3 10 10 10 16 0 5 -4 9 -10 9 -5 0
-10 -7 -10 -16z"/>
<path d="M3090 3385 c0 -13 4 -14 20 -5 11 6 20 13 20 15 0 3 -9 5 -20 5 -11
0 -20 -7 -20 -15z"/>
<path d="M2907 3363 c-11 -10 -8 -43 3 -43 6 0 10 11 10 25 0 26 -2 29 -13 18z"/>
<path d="M3242 3318 c-19 -19 -14 -34 16 -53 40 -26 89 -75 122 -120 28 -39
41 -53 108 -115 18 -17 30 -35 27 -40 -3 -6 -1 -10 4 -10 6 0 11 3 11 8 0 14
-74 117 -154 216 -45 54 -86 105 -92 112 -14 17 -26 18 -42 2z"/>
<path d="M3088 3209 c-10 -6 -18 -16 -18 -23 0 -8 -7 -19 -15 -26 -14 -12 -14
-15 1 -32 17 -18 18 -18 36 2 13 14 18 32 16 55 -3 29 -5 32 -20 24z"/>
<path d="M631 3156 c-19 -22 -5 -65 24 -76 13 -5 29 -19 35 -30 9 -18 17 -20
43 -14 60 12 75 47 17 38 -24 -4 -36 1 -61 28 -17 18 -34 41 -38 51 -6 17 -8
17 -20 3z"/>
<path d="M2907 3110 c-3 -11 -1 -20 4 -20 5 0 9 9 9 20 0 11 -2 20 -4 20 -2 0
-6 -9 -9 -20z"/>
<path d="M2975 3101 c-31 -7 -49 -41 -21 -41 9 0 16 -4 16 -10 0 -5 9 -10 20
-10 14 0 18 5 13 16 -4 12 -2 15 8 12 8 -2 15 -16 17 -30 3 -23 5 -24 38 -14
19 6 34 17 34 26 0 25 -17 43 -33 37 -8 -3 -23 1 -34 8 -10 8 -20 14 -23 13
-3 0 -18 -3 -35 -7z"/>
<path d="M3020 2910 c-13 -9 -13 -11 0 -20 15 -10 25 0 18 20 -2 6 -8 6 -18 0z"/>
<path d="M2990 2901 c0 -7 -4 -9 -10 -6 -5 3 -10 2 -10 -4 0 -5 4 -12 9 -15
10 -6 25 24 16 32 -3 3 -5 0 -5 -7z"/>
<path d="M3568 2883 c-30 -7 -28 -32 5 -63 18 -16 38 -30 45 -30 6 0 12 -8 12
-17 0 -12 3 -14 11 -6 21 21 -42 123 -73 116z"/>
<path d="M1259 2753 c-5 -14 -8 -31 -5 -37 2 -6 5 -4 5 5 1 9 8 19 16 23 17 6
21 36 5 36 -6 0 -15 -12 -21 -27z"/>
<path d="M2715 2771 c-9 -15 8 -35 24 -30 8 3 7 10 -2 23 -10 14 -16 16 -22 7z"/>
<path d="M3152 2730 c-14 -24 -24 -30 -52 -30 -30 0 -38 -6 -58 -40 -23 -40
-18 -58 6 -20 8 14 23 20 47 20 39 0 98 21 109 39 10 16 -2 48 -20 55 -10 4
-21 -5 -32 -24z"/>
<path d="M540 2739 c0 -18 29 -41 47 -37 15 3 14 6 -7 26 -26 24 -40 28 -40
11z"/>
<path d="M1213 2703 c-33 -11 1 -83 38 -83 10 0 11 2 2 8 -7 4 -16 24 -20 43
-5 22 -13 34 -20 32z"/>
<path d="M4201 2674 c0 -11 3 -14 6 -6 3 7 2 16 -1 19 -3 4 -6 -2 -5 -13z"/>
<path d="M3078 2535 c3 -27 -1 -45 -18 -67 -16 -22 -19 -33 -11 -41 6 -6 11
-25 12 -41 0 -17 3 -25 6 -18 2 6 13 12 23 12 27 0 32 38 8 71 -20 26 -20 29
-5 53 15 23 15 26 -1 47 -18 22 -18 22 -14 -16z"/>
<path d="M620 2505 c-10 -12 -10 -18 0 -30 17 -20 27 -19 41 6 9 17 8 23 -2
30 -19 12 -25 11 -39 -6z"/>
<path d="M1140 2439 c-8 -5 -29 -9 -47 -9 -20 0 -42 -9 -59 -25 -15 -14 -38
-25 -51 -25 -18 0 -24 -5 -21 -17 2 -14 15 -19 58 -21 30 -2 59 -7 65 -11 5
-5 22 -11 38 -15 25 -6 27 -4 27 28 0 26 7 40 30 60 36 30 56 26 63 -13 4 -17
14 -31 26 -34 17 -4 21 0 21 22 0 22 -7 30 -37 43 -52 22 -96 28 -113 17z"/>
<path d="M670 2417 c0 -7 14 -23 31 -36 63 -47 57 -93 -20 -141 -32 -21 -39
-31 -39 -58 0 -31 -16 -62 -30 -60 -31 4 -52 -4 -52 -19 0 -24 -43 -73 -63
-73 -20 0 -70 21 -80 35 -4 5 -6 29 -3 52 6 49 -13 64 -46 33 l-21 -20 21 -22
c72 -76 92 -101 92 -118 0 -10 4 -22 10 -25 15 -9 40 -68 38 -90 -1 -11 1 -38
5 -60 3 -22 4 -34 1 -27 -4 9 -11 7 -25 -9 -10 -12 -19 -24 -19 -27 0 -3 15
-24 34 -47 34 -41 34 -42 35 -150 1 -60 3 -110 6 -113 5 -6 88 27 95 38 3 4
38 26 78 47 80 44 80 49 4 87 -28 15 -35 15 -52 3 -27 -19 -66 -10 -85 20 -22
33 -30 164 -10 157 8 -3 19 -20 25 -38 11 -35 56 -84 66 -73 4 3 2 19 -4 34
-6 15 -13 59 -16 97 -3 39 -11 73 -17 77 -8 4 -8 17 0 45 6 22 11 58 11 82 0
23 5 42 11 42 6 0 7 5 2 13 -4 6 -8 25 -8 40 0 32 19 40 81 35 39 -3 39 -3 42
35 2 28 8 37 22 37 20 0 30 -19 30 -56 0 -38 19 -52 63 -46 27 3 42 1 48 -9 7
-11 9 -9 9 7 0 28 25 50 36 32 5 -7 8 -23 9 -35 0 -31 15 -41 22 -15 3 12 12
22 21 22 13 0 13 2 -1 18 -26 29 -22 62 7 62 14 0 28 -4 31 -10 8 -13 25 -13
25 0 0 15 -42 60 -57 60 -7 0 -13 -4 -13 -9 0 -6 -12 -3 -27 5 -16 7 -40 14
-55 14 -36 0 -60 25 -52 56 7 28 -10 33 -25 7 -8 -15 -13 -16 -28 -6 -10 7
-32 20 -49 28 -17 9 -37 26 -44 39 -7 13 -23 29 -37 35 -30 14 -33 14 -33 -2z"/>
<path d="M2936 2328 c-27 -31 -32 -138 -6 -138 11 0 20 63 10 74 -5 4 -2 24 7
43 17 42 13 50 -11 21z"/>
<path d="M3026 2321 c-4 -6 -3 -19 3 -28 9 -17 10 -17 17 0 8 21 -10 45 -20
28z"/>
<path d="M3070 2275 c12 -15 30 -12 30 6 0 5 -10 9 -21 9 -18 0 -19 -2 -9 -15z"/>
<path d="M4 1828 c2 -216 8 -422 13 -458 8 -58 10 -62 20 -40 12 28 11 219 -1
239 -10 15 12 61 28 61 14 0 10 488 -3 504 -5 6 -13 27 -18 46 -6 21 -16 36
-27 38 -16 3 -17 -20 -12 -390z"/>
<path d="M105 2137 c-5 -59 1 -908 8 -1054 1 -28 9 -48 24 -63 l23 -20 24 47
c29 57 82 145 114 190 13 18 64 60 115 94 111 74 102 66 90 81 -16 20 -43 109
-37 120 3 5 -4 18 -17 29 -17 14 -24 16 -30 7 -4 -7 -6 -15 -3 -19 2 -4 -3 -9
-11 -13 -8 -3 -21 -21 -29 -41 -9 -20 -20 -34 -26 -30 -5 3 -10 1 -10 -4 0 -6
-5 -11 -11 -11 -5 0 -8 4 -5 9 3 5 -5 12 -19 15 -14 4 -25 13 -25 22 0 8 -5
12 -10 9 -6 -3 -10 0 -11 7 0 7 -5 3 -11 -9 -6 -13 -17 -23 -24 -23 -19 0 -33
32 -24 55 4 12 1 29 -7 41 -10 16 -13 63 -13 195 0 96 0 181 0 189 -1 8 4 49
10 91 14 90 0 130 -49 147 l-29 10 -7 -71z"/>
<path d="M295 2130 c3 -5 11 -10 16 -10 6 0 7 5 4 10 -3 6 -11 10 -16 10 -6 0
-7 -4 -4 -10z"/>
<path d="M910 2055 c-9 -11 -10 -19 -2 -27 14 -14 32 -1 32 23 0 23 -13 25
-30 4z"/>
<path d="M980 2039 c0 -5 5 -7 10 -4 6 3 10 8 10 11 0 2 -4 4 -10 4 -5 0 -10
-5 -10 -11z"/>
<path d="M1283 1933 c-26 -35 -29 -47 -10 -40 7 3 12 -4 12 -19 0 -13 -3 -24
-7 -24 -4 0 -10 -9 -13 -20 -4 -11 -11 -18 -16 -15 -5 4 -8 -29 -7 -76 l2 -81
44 -32 c25 -17 71 -55 103 -85 33 -30 61 -52 63 -50 7 8 -47 109 -58 109 -7 0
-19 17 -28 38 -9 20 -24 55 -34 77 -10 25 -19 81 -23 145 l-6 105 -22 -32z"/>
<path d="M888 1923 c-21 -5 -34 -41 -20 -55 6 -6 18 -5 33 4 13 7 26 14 27 15
7 3 -9 43 -16 42 -4 -1 -15 -3 -24 -6z"/>
<path d="M1020 1878 c0 -14 86 -98 101 -98 23 0 6 37 -26 54 -19 11 -35 23
-35 27 0 5 -9 13 -20 19 -15 8 -20 8 -20 -2z"/>
<path d="M970 1846 c0 -9 5 -16 10 -16 6 0 10 4 10 9 0 6 -4 13 -10 16 -5 3
-10 -1 -10 -9z"/>
<path d="M1146 1783 c-16 -33 -59 -184 -53 -190 2 -2 10 17 17 42 7 24 23 56
36 70 17 18 24 38 24 66 0 46 -5 49 -24 12z"/>
<path d="M860 1661 c0 -6 5 -13 10 -16 6 -3 10 1 10 9 0 9 -4 16 -10 16 -5 0
-10 -4 -10 -9z"/>
<path d="M1081 1564 c0 -11 3 -14 6 -6 3 7 2 16 -1 19 -3 4 -6 -2 -5 -13z"/>
<path d="M1081 1514 c0 -11 3 -14 6 -6 3 7 2 16 -1 19 -3 4 -6 -2 -5 -13z"/>
<path d="M1067 1465 c-4 -16 -10 -39 -13 -50 -5 -18 -4 -18 11 3 9 12 15 35
13 50 l-3 27 -8 -30z"/>
<path d="M1760 1462 c0 -5 -6 -9 -12 -10 -22 -2 -61 -9 -113 -22 -33 -7 -86
-9 -156 -4 l-105 6 -16 -40 c-15 -39 -15 -43 13 -124 l28 -83 -30 -52 c-23
-39 -39 -96 -65 -220 -49 -234 -52 -254 -64 -383 -12 -129 -38 -311 -45 -318
-18 -18 -75 74 -91 147 -3 14 -13 41 -21 60 -8 18 -21 70 -29 114 -14 80 -24
109 -24 69 0 -73 84 -336 158 -493 l49 -105 55 -3 55 -2 61 94 c83 129 88 143
96 222 6 72 55 327 100 520 34 145 45 230 33 250 -5 9 -6 26 -3 38 8 33 95
126 164 176 l60 44 -41 63 c-39 59 -57 77 -57 56z"/>
<path d="M1030 1301 c0 -10 -2 -34 -5 -52 l-5 -34 14 35 c17 42 20 70 6 70 -5
0 -10 -8 -10 -19z"/>
<path d="M30 1214 c0 -10 5 -26 10 -34 8 -11 9 -7 4 15 -8 37 -14 45 -14 19z"/>
<path d="M1006 1114 c-8 -58 -6 -279 3 -359 4 -33 6 43 6 172 0 128 -1 233 -1
233 -1 0 -4 -21 -8 -46z"/>
<path d="M3126 1115 c-3 -9 -6 -22 -5 -28 0 -7 5 -1 10 12 5 13 8 26 5 28 -2
2 -6 -3 -10 -12z"/>
<path d="M3111 1063 c-1 -6 -4 -20 -7 -30 -5 -17 -5 -17 6 0 6 10 9 23 6 30
-3 9 -5 9 -5 0z"/>
<path d="M129 969 c-9 -4 -22 -21 -28 -37 -10 -23 -17 -28 -37 -24 -13 2 -24
10 -24 18 0 7 -9 18 -20 24 -20 10 -20 8 -19 -167 l1 -179 26 1 c20 0 27 -7
37 -35 11 -33 12 -31 18 55 7 98 29 222 54 298 17 53 16 60 -8 46z"/>
<path d="M4115 951 c-3 -6 -13 -7 -23 -4 -15 6 -15 5 -3 -10 16 -21 51 -22 51
-3 0 19 -17 30 -25 17z"/>
<path d="M1022 650 c0 -14 2 -19 5 -12 2 6 2 18 0 25 -3 6 -5 1 -5 -13z"/>
<path d="M81 183 c-1 -17 4 -35 9 -38 12 -7 12 22 0 50 -7 17 -9 15 -9 -12z"/>
<path d="M2401 48 c7 -9 30 -11 63 -9 45 4 48 5 21 12 -16 3 -45 7 -63 8 -26
1 -30 -2 -21 -11z"/>
<path d="M1993 33 c15 -2 39 -2 55 0 15 2 2 4 -28 4 -30 0 -43 -2 -27 -4z"/>
<path d="M0 16 c0 -9 5 -16 10 -16 6 0 10 4 10 9 0 6 -4 13 -10 16 -5 3 -10
-1 -10 -9z"/>
<path d="M1913 23 c9 -2 23 -2 30 0 6 3 -1 5 -18 5 -16 0 -22 -2 -12 -5z"/>
</g>
</svg>
